<svg xmlns="http://www.w3.org/2000/svg" xmlns:xlink="http://www.w3.org/1999/xlink" width="20" height="20" viewBox="0 0 20 20">
  <defs>
    <clipPath id="clip-Artboard_5">
      <rect width="20" height="20"/>
    </clipPath>
  </defs>
  <g id="Artboard_5" data-name="Artboard – 5" clip-path="url(#clip-Artboard_5)">
    <g id="Group_850" data-name="Group 850" transform="translate(-211 -1698)">
      <path id="Path_104" data-name="Path 104" d="M1.11,13.236C-1.317,6.568.1,3.536,6.765,1.109S16.464.1,18.891,6.764s1.013,9.7-5.655,12.127S3.537,19.9,1.11,13.236" transform="translate(211 1698)" fill="#333740"/>
      <path id="Path_105" data-name="Path 105" d="M1.986,4.043h-.42a1.832,1.832,0,0,0-1.047.285,1.162,1.162,0,0,0-.378.435A1.436,1.436,0,0,0,0,5.414v6.026a.208.208,0,0,0,.208.208h.82a.208.208,0,0,0,.208-.208V7.194h.749a.208.208,0,0,0,.208-.208v-.7a.208.208,0,0,0-.208-.208H1.237V5.54a.738.738,0,0,1,.036-.263.165.165,0,0,1,.041-.065.185.185,0,0,1,.1-.04,1.416,1.416,0,0,1,.216-.01h.357a.208.208,0,0,0,.208-.208v-.7a.208.208,0,0,0-.208-.208" transform="translate(215.911 1700.106)" fill="#fff"/>
      <path id="Path_106" data-name="Path 106" d="M18.737,17.67a1.794,1.794,0,0,0-.6-1.389,2.345,2.345,0,0,0-1.569-.518,2.576,2.576,0,0,0-1.621.512,1.782,1.782,0,0,0-.687,1.327.208.208,0,0,0,.208.218h.869a.208.208,0,0,0,.208-.19.684.684,0,0,1,.281-.49,1.214,1.214,0,0,1,.742-.218,1.058,1.058,0,0,1,.706.217.674.674,0,0,1,.228.532V17.7a.266.266,0,0,1-.008.072l-.008.018a.123.123,0,0,1-.054.033,1.64,1.64,0,0,1-.359.074c-.176.023-.4.048-.69.086h0a4.176,4.176,0,0,0-1.49.4,1.437,1.437,0,0,0-.539.515,1.59,1.59,0,0,0-.2.825,1.827,1.827,0,0,0,.155.764,1.581,1.581,0,0,0,.736.755,2.446,2.446,0,0,0,1.114.242,2.115,2.115,0,0,0,1.158-.294,1.533,1.533,0,0,0,.186-.139v.156a.208.208,0,0,0,.208.208h.4l.629-2.341ZM17.5,19.252a1.04,1.04,0,0,1-.277.746,1.277,1.277,0,0,1-.95.325,1.144,1.144,0,0,1-.657-.161A.462.462,0,0,1,15.469,20a.5.5,0,0,1-.052-.23v-.005a.474.474,0,0,1,.067-.257.7.7,0,0,1,.339-.256,2.38,2.38,0,0,1,.577-.143c.3-.042.6-.086.854-.136.09-.018.171-.037.247-.057Z" transform="translate(204.119 1690.34)" fill="#fff"/>
      <path id="Path_107" data-name="Path 107" d="M43.9.083A.209.209,0,0,0,43.738,0H42.693a.208.208,0,0,0-.2.154L40.42,7.865l-.1.381-.141.523a.208.208,0,0,0,.2.262h1.045a.208.208,0,0,0,.2-.154L43.939.263A.209.209,0,0,0,43.9.083" transform="translate(182.436 1703.474)" fill="#a299ff"/>
    </g>
  </g>
</svg>
