<svg width="128" height="128" fill="none" xmlns="http://www.w3.org/2000/svg"><path fill="#242925" d="M0 0h128v128H0z"/><path d="M97.415 41.746h-2.371a1.95 1.95 0 0 0-1.84 1.308L78.413 85.49a1.95 1.95 0 0 0 1.839 2.591h2.372a1.951 1.951 0 0 0 1.839-1.308l14.79-42.434a1.95 1.95 0 0 0-1.84-2.592" fill="#9580FF"/><path d="M43.951 55.241v-1.934a1.95 1.95 0 0 0-1.95-1.951h-3.729v-1.792c-.006-2.095.467-3.35.892-3.807l.02-.025c.29-.286.656-.486 1.054-.575 1.377-.221 2.77-.33 4.165-.322h.717a1.95 1.95 0 0 0 1.95-1.951v-1.748a1.945 1.945 0 0 0-1.576-1.914 20.48 20.48 0 0 0-.792-.137c-.369-.056-2.3-.084-2.68-.085h-.026c-3.14 0-5.815.733-7.605 2.655l-.003.003c-1.75 1.927-2.38 4.653-2.388 7.966v36.507a1.95 1.95 0 0 0 1.95 1.951h2.372a1.95 1.95 0 0 0 1.951-1.95V57.19h3.73a1.95 1.95 0 0 0 1.95-1.95M68.67 52.532a14.72 14.72 0 0 0-7.574-1.8 17.242 17.242 0 0 0-7.557 1.535 12.132 12.132 0 0 0-5.148 4.602l-.008.014a1.682 1.682 0 0 0-.253.888 1.78 1.78 0 0 0 1.195 1.672l1.913.681a2.73 2.73 0 0 0 3.032-.857c.18-.221.374-.433.578-.633 1.252-1.215 3.11-1.93 6.001-1.942 1.244-.03 2.484.163 3.66.57a5.001 5.001 0 0 1 2.16 1.518c1.083 1.33 1.765 3.384 1.828 6.328-2.787.044-5.258.16-7.393.36-2.684.24-5.331.79-7.888 1.642l-.008.003-.023.006h-.004a12.54 12.54 0 0 0-6.056 3.749 10.16 10.16 0 0 0-2.201 6.672v.063a10.771 10.771 0 0 0 1.658 5.972 10.323 10.323 0 0 0 4.63 3.842 16.57 16.57 0 0 0 6.645 1.223 15.147 15.147 0 0 0 5.122-.958 16.277 16.277 0 0 0 5.033-2.97c.293-.25.569-.516.836-.79a9.196 9.196 0 0 0 1.138 3.227 1.935 1.935 0 0 0 1.661.928h.004l1.142-.013a1.95 1.95 0 0 0 1.927-1.95V65.224a18.277 18.277 0 0 0-1.415-7.468 11.253 11.253 0 0 0-4.627-5.225m-1.585 24.726a11.493 11.493 0 0 1-3.85 4.013 9.457 9.457 0 0 1-5.198 1.476c-2.453-.005-4.1-.568-5.212-1.486a4.335 4.335 0 0 1-1.22-1.58 5.624 5.624 0 0 1-.416-2.225c-.014-.897.21-1.78.65-2.562a5.223 5.223 0 0 1 2.394-1.92 21.962 21.962 0 0 1 6.052-1.575 67.872 67.872 0 0 1 8.222-.577v1.206a10.2 10.2 0 0 1-1.422 5.23" fill="#F7F8F7"/></svg>